<?xml version="1.0" encoding="utf-8"?>
<!-- Generator: Adobe Illustrator 25.2.3, SVG Export Plug-In . SVG Version: 6.00 Build 0)  -->
<svg version="1.1" id="Layer_1" xmlns="http://www.w3.org/2000/svg" xmlns:xlink="http://www.w3.org/1999/xlink" x="0px" y="0px"
	 viewBox="0 0 132 29" style="enable-background:new 0 0 132 29;" xml:space="preserve">
<style type="text/css">
	.st0{fill:url(#SVGID_1_);}
	.st1{fill:url(#SVGID_2_);}
	.st2{fill:url(#SVGID_3_);}
	.st3{fill:url(#SVGID_4_);}
	.st4{fill:url(#SVGID_5_);}
	.st5{fill:#4E4E4E;}
</style>
<g>
	<g>
		<linearGradient id="SVGID_1_" gradientUnits="userSpaceOnUse" x1="59.5758" y1="7.1733" x2="56.8959" y2="19.3549">
			<stop  offset="0.132" style="stop-color:#FE9900"/>
			<stop  offset="0.3933" style="stop-color:#FB9008"/>
			<stop  offset="0.8128" style="stop-color:#F5791D"/>
			<stop  offset="1" style="stop-color:#F16C29"/>
		</linearGradient>
		<path class="st0" d="M64.2,14.3c0,0.5-0.1,1.1-0.2,1.7c-0.1,0.6-0.3,1.2-0.6,1.7c-0.3,0.6-0.6,1.1-1,1.6c-0.4,0.5-0.9,0.9-1.6,1.3
			s-1.3,0.7-2.1,0.9c-0.8,0.2-1.8,0.3-2.9,0.3h-1.9l-1.2,5.9c0,0.1-0.1,0.2-0.1,0.3c-0.1,0.1-0.2,0.1-0.4,0.2
			c-0.2,0-0.4,0.1-0.6,0.1c-0.2,0-0.6,0-0.9,0c-0.4,0-0.6,0-0.9,0c-0.2,0-0.4-0.1-0.6-0.1c-0.1,0-0.2-0.1-0.3-0.2
			c0-0.1-0.1-0.2,0-0.3l3.3-16.7c0.1-0.4,0.3-0.8,0.6-1c0.3-0.2,0.6-0.3,1.1-0.3H58c0.5,0,0.9,0,1.3,0.1c0.4,0,0.8,0.1,1.2,0.2
			c0.6,0.1,1.1,0.3,1.6,0.5c0.5,0.2,0.9,0.5,1.2,0.9c0.3,0.4,0.6,0.8,0.7,1.3C64.1,13.1,64.2,13.6,64.2,14.3z M60.3,14.7
			c0-0.5-0.1-0.9-0.3-1.2c-0.2-0.3-0.6-0.6-1-0.7c-0.2-0.1-0.4-0.1-0.7-0.1c-0.2,0-0.5,0-0.8,0h-1.7l-1.2,6.3h1.7
			c0.5,0,1-0.1,1.4-0.2c0.4-0.1,0.7-0.3,1-0.5c0.3-0.2,0.5-0.5,0.7-0.7c0.2-0.3,0.4-0.6,0.5-0.9c0.1-0.3,0.2-0.6,0.3-1
			C60.2,15.3,60.3,15,60.3,14.7z"/>
		<linearGradient id="SVGID_2_" gradientUnits="userSpaceOnUse" x1="73.3636" y1="10.2066" x2="70.6836" y2="22.3882">
			<stop  offset="0.132" style="stop-color:#FE9900"/>
			<stop  offset="0.3933" style="stop-color:#FB9008"/>
			<stop  offset="0.8128" style="stop-color:#F5791D"/>
			<stop  offset="1" style="stop-color:#F16C29"/>
		</linearGradient>
		<path class="st1" d="M75.9,27.8c0,0.2-0.2,0.3-0.5,0.4c-0.3,0.1-0.7,0.1-1.3,0.1c-0.3,0-0.5,0-0.7,0c-0.2,0-0.3-0.1-0.5-0.1
			c-0.1,0-0.2-0.1-0.2-0.2c0-0.1,0-0.2,0-0.3l0.4-2c-0.1,0.3-0.4,0.6-0.7,1c-0.3,0.3-0.7,0.6-1.1,0.9c-0.4,0.3-0.9,0.5-1.4,0.7
			c-0.5,0.2-1.1,0.3-1.6,0.3c-0.8,0-1.4-0.1-1.9-0.4c-0.5-0.3-0.9-0.6-1.2-1.1c-0.3-0.5-0.5-1-0.7-1.6c-0.1-0.6-0.2-1.2-0.2-1.8
			c0-0.6,0.1-1.3,0.2-2c0.1-0.7,0.3-1.4,0.5-2.1c0.2-0.7,0.5-1.4,0.9-2c0.4-0.7,0.8-1.2,1.3-1.7c0.5-0.5,1.1-0.9,1.8-1.2
			c0.7-0.3,1.4-0.5,2.3-0.5c0.8,0,1.5,0.2,2.1,0.5c0.6,0.3,1.1,0.8,1.6,1.4l0.2-1.1c0-0.2,0.2-0.3,0.5-0.4c0.3-0.1,0.7-0.1,1.3-0.1
			c0.3,0,0.5,0,0.7,0c0.2,0,0.3,0.1,0.5,0.1c0.1,0,0.2,0.1,0.2,0.2c0,0.1,0,0.2,0,0.3L75.9,27.8z M74.1,18.8
			c-0.3-0.5-0.7-0.9-1.1-1.2c-0.4-0.3-0.9-0.4-1.4-0.4c-0.4,0-0.8,0.1-1.1,0.3c-0.3,0.2-0.6,0.4-0.9,0.8c-0.3,0.3-0.5,0.7-0.7,1.1
			c-0.2,0.4-0.4,0.9-0.5,1.3c-0.1,0.5-0.2,0.9-0.3,1.4C68.1,22.6,68,23,68,23.4c0,0.3,0,0.6,0.1,0.8c0,0.3,0.1,0.5,0.2,0.7
			c0.1,0.2,0.3,0.4,0.5,0.5c0.2,0.1,0.4,0.2,0.7,0.2c0.4,0,0.9-0.1,1.3-0.4c0.4-0.3,0.9-0.6,1.2-1c0.4-0.4,0.7-0.9,1-1.5
			c0.3-0.6,0.5-1.2,0.6-1.9L74.1,18.8z"/>
		<linearGradient id="SVGID_3_" gradientUnits="userSpaceOnUse" x1="86.6678" y1="13.1336" x2="83.9879" y2="25.3152">
			<stop  offset="0.132" style="stop-color:#FE9900"/>
			<stop  offset="0.3933" style="stop-color:#FB9008"/>
			<stop  offset="0.8128" style="stop-color:#F5791D"/>
			<stop  offset="1" style="stop-color:#F16C29"/>
		</linearGradient>
		<path class="st2" d="M90,15.6c0,0.1,0,0.3-0.1,0.5c0,0.2-0.1,0.5-0.2,0.7c-0.1,0.2-0.1,0.4-0.2,0.6c-0.1,0.2-0.2,0.3-0.3,0.3
			c-0.1,0-0.3,0-0.4-0.1c-0.2-0.1-0.4-0.2-0.6-0.3c-0.2-0.1-0.5-0.2-0.8-0.3c-0.3-0.1-0.7-0.1-1.1-0.1c-0.3,0-0.6,0-0.9,0.1
			c-0.3,0.1-0.5,0.2-0.7,0.4c-0.2,0.1-0.3,0.3-0.4,0.5c-0.1,0.2-0.1,0.4-0.1,0.6c0,0.3,0.1,0.5,0.4,0.7c0.2,0.2,0.5,0.4,0.9,0.6
			c0.4,0.2,0.8,0.4,1.2,0.6c0.4,0.2,0.8,0.4,1.2,0.7c0.4,0.3,0.7,0.6,0.9,1c0.2,0.4,0.4,0.9,0.4,1.5c0,0.7-0.1,1.4-0.4,2
			c-0.3,0.6-0.7,1.1-1.2,1.6c-0.5,0.4-1.2,0.8-1.9,1.1c-0.8,0.3-1.6,0.4-2.6,0.4c-0.5,0-0.9,0-1.3-0.1c-0.4-0.1-0.8-0.1-1.1-0.2
			c-0.3-0.1-0.6-0.2-0.8-0.3c-0.2-0.1-0.4-0.2-0.5-0.3c-0.1-0.1-0.1-0.2-0.2-0.2c0-0.1-0.1-0.2-0.1-0.3c0-0.1,0-0.2,0-0.3
			c0-0.1,0-0.3,0.1-0.4c0-0.2,0.1-0.3,0.1-0.5c0-0.2,0.1-0.3,0.2-0.4c0.1-0.1,0.1-0.2,0.2-0.3c0.1-0.1,0.1-0.1,0.2-0.1
			c0.1,0,0.3,0.1,0.4,0.2c0.2,0.1,0.4,0.2,0.6,0.4c0.3,0.1,0.6,0.3,1,0.4c0.4,0.1,0.8,0.2,1.4,0.2c0.4,0,0.7,0,1-0.1
			c0.3-0.1,0.5-0.2,0.7-0.4c0.2-0.2,0.3-0.3,0.4-0.6c0.1-0.2,0.1-0.4,0.1-0.7c0-0.3-0.1-0.6-0.4-0.8c-0.2-0.2-0.5-0.4-0.9-0.6
			c-0.4-0.2-0.7-0.4-1.2-0.6c-0.4-0.2-0.8-0.4-1.2-0.7c-0.4-0.3-0.6-0.6-0.9-1c-0.2-0.4-0.4-0.9-0.4-1.5c0-0.7,0.1-1.3,0.4-1.9
			c0.3-0.6,0.6-1.1,1.1-1.5c0.5-0.4,1.1-0.8,1.8-1c0.7-0.2,1.5-0.4,2.4-0.4c0.4,0,0.8,0,1.2,0.1c0.4,0.1,0.7,0.1,1,0.2
			c0.3,0.1,0.6,0.2,0.8,0.3c0.2,0.1,0.4,0.2,0.5,0.3C90,15.2,90,15.3,90,15.6z"/>
		<linearGradient id="SVGID_4_" gradientUnits="userSpaceOnUse" x1="97.7007" y1="15.5608" x2="95.0208" y2="27.7424">
			<stop  offset="0.132" style="stop-color:#FE9900"/>
			<stop  offset="0.3933" style="stop-color:#FB9008"/>
			<stop  offset="0.8128" style="stop-color:#F5791D"/>
			<stop  offset="1" style="stop-color:#F16C29"/>
		</linearGradient>
		<path class="st3" d="M101.6,15.6c0,0.1,0,0.3-0.1,0.5c0,0.2-0.1,0.5-0.2,0.7c-0.1,0.2-0.1,0.4-0.2,0.6c-0.1,0.2-0.2,0.3-0.3,0.3
			c-0.1,0-0.3,0-0.4-0.1c-0.2-0.1-0.4-0.2-0.6-0.3c-0.2-0.1-0.5-0.2-0.8-0.3c-0.3-0.1-0.7-0.1-1.1-0.1c-0.3,0-0.6,0-0.9,0.1
			c-0.3,0.1-0.5,0.2-0.7,0.4c-0.2,0.1-0.3,0.3-0.4,0.5c-0.1,0.2-0.1,0.4-0.1,0.6c0,0.3,0.1,0.5,0.4,0.7c0.2,0.2,0.5,0.4,0.9,0.6
			c0.4,0.2,0.8,0.4,1.2,0.6c0.4,0.2,0.8,0.4,1.2,0.7c0.4,0.3,0.7,0.6,0.9,1c0.2,0.4,0.4,0.9,0.4,1.5c0,0.7-0.1,1.4-0.4,2
			c-0.3,0.6-0.7,1.1-1.2,1.6c-0.5,0.4-1.2,0.8-1.9,1.1c-0.8,0.3-1.6,0.4-2.6,0.4c-0.5,0-0.9,0-1.3-0.1c-0.4-0.1-0.8-0.1-1.1-0.2
			c-0.3-0.1-0.6-0.2-0.8-0.3c-0.2-0.1-0.4-0.2-0.5-0.3c-0.1-0.1-0.1-0.2-0.2-0.2c0-0.1-0.1-0.2-0.1-0.3c0-0.1,0-0.2,0-0.3
			c0-0.1,0-0.3,0.1-0.4c0-0.2,0.1-0.3,0.1-0.5c0-0.2,0.1-0.3,0.2-0.4c0.1-0.1,0.1-0.2,0.2-0.3c0.1-0.1,0.1-0.1,0.2-0.1
			c0.1,0,0.3,0.1,0.4,0.2c0.2,0.1,0.4,0.2,0.6,0.4c0.3,0.1,0.6,0.3,1,0.4c0.4,0.1,0.8,0.2,1.4,0.2c0.4,0,0.7,0,1-0.1
			c0.3-0.1,0.5-0.2,0.7-0.4c0.2-0.2,0.3-0.3,0.4-0.6c0.1-0.2,0.1-0.4,0.1-0.7c0-0.3-0.1-0.6-0.4-0.8c-0.2-0.2-0.5-0.4-0.9-0.6
			c-0.4-0.2-0.7-0.4-1.2-0.6c-0.4-0.2-0.8-0.4-1.2-0.7c-0.4-0.3-0.6-0.6-0.9-1c-0.2-0.4-0.4-0.9-0.4-1.5c0-0.7,0.1-1.3,0.4-1.9
			c0.3-0.6,0.6-1.1,1.1-1.5c0.5-0.4,1.1-0.8,1.8-1c0.7-0.2,1.5-0.4,2.4-0.4c0.4,0,0.8,0,1.2,0.1c0.4,0.1,0.7,0.1,1,0.2
			c0.3,0.1,0.6,0.2,0.8,0.3c0.2,0.1,0.4,0.2,0.5,0.3C101.5,15.2,101.6,15.3,101.6,15.6z"/>
	</g>
	
		<linearGradient id="SVGID_5_" gradientUnits="userSpaceOnUse" x1="40.6521" y1="-11.4774" x2="56.9964" y2="-11.4774" gradientTransform="matrix(0.985 -0.1724 0.1724 0.985 -6.1137 37.4265)">
		<stop  offset="0.132" style="stop-color:#FE9900"/>
		<stop  offset="0.3933" style="stop-color:#FB9008"/>
		<stop  offset="0.8128" style="stop-color:#F5791D"/>
		<stop  offset="1" style="stop-color:#F16C29"/>
	</linearGradient>
	<path class="st4" d="M41.3,26.1c-0.3,0.9-0.8,1.5-1.7,1.7c-1.4,0.4-2.7,0.1-3.5-1.1c-0.2-0.4-0.4-0.9-0.5-1.3
		c-0.6-1.8-1.2-3.5-1.9-5.3c-0.5-1.4-1-2.8-1.5-4.3c-0.5-1.4-1-2.8-1.5-4.2c-0.1-0.4-0.3-0.7-0.4-1.1c-0.2-0.7,0.3-1.4,1-1.4
		c0.3,0,0.6,0,1,0c1,0,1.9,0.7,2.2,1.7c0.5,1.4,0.9,2.8,1.4,4.1c0.5,1.6,1,3.1,1.6,4.7c0.2,0.7,0.5,1.3,0.7,2
		c0.1,0.2,0.2,0.4,0.4,0.4c0.2,0,0.3-0.2,0.4-0.4c0.2-0.7,0.5-1.4,0.7-2.1c1-2.9,1.9-5.7,2.9-8.6c0.3-0.8,0.8-1.4,1.6-1.6
		c0.6-0.2,1.3-0.2,1.9,0c0.5,0.1,0.8,0.6,0.7,1.1c0,0.2-0.1,0.3-0.1,0.5"/>
	<path class="st5" d="M38.6,17.9c-0.8-2.3-1.5-4.5-2.3-6.8c0.4-0.2,4.5-0.9,5-0.9c-0.9,2.6-1.7,5.1-2.6,7.7
		C38.7,17.9,38.7,17.9,38.6,17.9z"/>
	<circle class="st5" cx="38.9" cy="4.7" r="4.3"/>
</g>
</svg>
